<svg width="32" height="32" viewBox="0 0 32 32" fill="none" xmlns="http://www.w3.org/2000/svg">
<g clip-path="url(#clip0_508_44)">
<path d="M25.73 15.9846C26.0461 15.9846 26.3025 16.249 26.2831 16.5635C26.2831 16.5651 26.2831 16.5667 26.2831 16.5683C26.2815 16.6167 26.2751 16.6651 26.2718 16.7135C26.2606 16.8619 26.2493 17.0118 26.2315 17.1586C26.2267 17.2053 26.2202 17.2505 26.2138 17.2973C26.1944 17.4424 26.1735 17.5875 26.1493 17.7311C26.1412 17.7746 26.1332 17.8198 26.1251 17.8633C26.0945 18.0246 26.0606 18.1842 26.0235 18.3423C26.017 18.3729 26.009 18.4036 26.0025 18.4342C25.9783 18.5326 25.9525 18.6293 25.9251 18.7261C25.909 18.7841 25.8929 18.8406 25.8767 18.8986C25.8509 18.9841 25.8251 19.0696 25.7977 19.1551C25.7752 19.226 25.751 19.297 25.7268 19.3663C25.701 19.4389 25.6768 19.5115 25.6494 19.584C25.6139 19.6792 25.5752 19.7727 25.5381 19.8678C25.5187 19.9146 25.501 19.9614 25.4816 20.0081C25.3559 20.3033 25.2156 20.5919 25.064 20.8725C25.0559 20.887 25.0478 20.9016 25.0398 20.9161C24.9688 21.0451 24.8963 21.1725 24.8205 21.2983C24.7705 21.3821 24.6415 21.5853 24.5866 21.6676L24.5399 21.7369C23.1514 23.7866 21.042 25.3106 18.5811 25.946H18.5762C18.4246 25.9863 18.2731 26.0201 18.1182 26.0524C18.0811 26.0605 18.0457 26.0669 18.0086 26.0734C17.8892 26.0976 17.7683 26.1185 17.6473 26.1379C17.5974 26.1459 17.5474 26.154 17.499 26.1604C17.3877 26.1766 17.2764 26.1911 17.1635 26.2024C17.1103 26.2088 17.0555 26.2153 17.0007 26.2201C16.8862 26.2314 16.7701 26.2395 16.6539 26.2459C16.604 26.2491 16.5556 26.2524 16.5056 26.2556C16.3427 26.2637 16.1782 26.2685 16.0121 26.2685H16.0057C15.846 26.2685 15.6847 26.2637 15.5267 26.2556C15.4348 26.2508 15.3445 26.2443 15.2542 26.2362C15.1913 26.2314 15.13 26.2282 15.0687 26.2217C14.951 26.2104 14.8333 26.1975 14.7171 26.183C14.6865 26.1798 14.6559 26.175 14.6252 26.1717C14.4898 26.1524 14.3543 26.1314 14.2204 26.1088L14.3511 25.6541L14.4591 25.2767C14.6155 25.3025 14.7736 25.3235 14.9316 25.3412C15.2864 25.3831 15.646 25.4057 16.0105 25.4057C20.376 25.4057 24.0577 22.4255 25.1269 18.3955H23.8722C22.8385 21.7514 19.7051 24.1995 16.0121 24.1995C15.9524 24.1995 15.8928 24.1978 15.8331 24.1962C15.4815 24.1882 15.1364 24.1591 14.7962 24.1091L15.0364 23.2706C15.3558 23.3125 15.6815 23.3367 16.0121 23.3367C19.2245 23.3367 21.9612 21.2676 22.9627 18.3939H21.6693C20.7291 20.5887 18.5456 22.1288 16.0105 22.1288C15.9266 22.1288 15.8444 22.1256 15.7621 22.1223C15.6315 22.1175 15.5009 22.1094 15.3735 22.0965L15.4928 21.6805L15.617 21.2515C15.7476 21.2612 15.8783 21.2676 16.0121 21.2676C18.0602 21.2676 19.8373 20.0985 20.7178 18.3939H19.3019C18.5585 19.4034 17.3603 20.0614 16.0121 20.0614C15.9944 20.0614 15.9766 20.0614 15.9605 20.0614C15.6751 20.0581 15.3945 20.0243 15.1251 19.9646L14.8123 21.0532L14.7913 21.1257L14.5527 21.9546L14.2188 23.1157L13.9802 23.9447L13.6463 25.1058L13.4399 25.825C13.1948 25.825 12.9577 25.7911 12.732 25.7283C12.6787 25.7105 12.6239 25.6928 12.5723 25.6734C12.5223 25.6557 12.4723 25.6379 12.4223 25.6202C12.411 25.6154 12.3997 25.6105 12.3868 25.6057C11.4757 25.2058 10.8371 24.2962 10.8371 23.2367C10.8371 22.9883 10.8742 22.7497 10.9387 22.5223L10.958 22.4562L10.9613 22.4449L11.2177 21.5547C10.979 21.3499 10.7548 21.1322 10.5436 20.8983L10.2694 21.8546L9.8969 23.148L9.63726 24.0495C9.58566 24.0092 9.53244 23.9688 9.48245 23.9285L9.45342 23.9043C9.33086 23.8027 9.21152 23.6995 9.0938 23.5931L9.07283 23.5737C8.83093 23.356 8.60032 23.1254 8.381 22.8835C8.16168 22.6432 7.95526 22.39 7.76174 22.1288C7.66659 22.003 7.57628 21.874 7.48759 21.7434C7.48114 21.7337 7.47307 21.7224 7.46662 21.7127C7.38277 21.5869 7.30052 21.4612 7.2215 21.3321C7.21505 21.3209 7.2086 21.3112 7.20215 21.2999C6.94896 20.8822 6.72319 20.4452 6.53128 19.9904C6.52483 19.9743 6.51838 19.9582 6.51193 19.9436C6.45871 19.8162 6.40711 19.6872 6.35873 19.5582C6.3426 19.5147 6.32809 19.4711 6.31196 19.4276C6.27487 19.3244 6.23939 19.2196 6.20552 19.1147C6.18778 19.0599 6.17005 19.0035 6.15392 18.9486C6.12489 18.8535 6.09909 18.7583 6.07167 18.6632C6.05555 18.6003 6.03781 18.539 6.02329 18.4777C6.00717 18.41 5.99104 18.3423 5.97653 18.2729C5.94911 18.1504 5.9217 18.0278 5.89912 17.9036C5.88622 17.8391 5.87493 17.7746 5.86364 17.7085C5.84268 17.5843 5.82332 17.4585 5.8072 17.3327C5.79913 17.2682 5.78946 17.2021 5.78301 17.1376C5.76849 17.0054 5.7572 16.8715 5.74753 16.7377C5.74269 16.6796 5.73785 16.62 5.73463 16.5619C5.72334 16.3716 5.71689 16.1781 5.71689 15.9846C5.71689 10.3999 10.192 5.84416 15.746 5.70386C15.7089 5.70547 15.6702 5.7087 15.6331 5.71031C15.6057 5.71192 15.5783 5.71353 15.5509 5.71676C15.5412 5.71676 15.5315 5.71676 15.5219 5.71998C15.5009 5.7216 15.4783 5.72321 15.4574 5.72643C15.4316 5.72966 15.4074 5.73127 15.3816 5.7345C15.3735 5.7345 15.3638 5.73611 15.3558 5.73772C15.3267 5.74095 15.2977 5.74579 15.2687 5.75062C15.2542 5.75062 15.2396 5.75385 15.2251 5.75708C15.1929 5.76191 15.1622 5.76675 15.1316 5.7732C15.1268 5.7732 15.1235 5.7732 15.1187 5.77481C15.0816 5.78127 15.0445 5.78772 15.0074 5.79578C14.9155 5.81352 14.8236 5.83448 14.7333 5.85867C14.7091 5.86512 14.6833 5.87157 14.6575 5.87802C14.643 5.88125 14.6284 5.88609 14.6139 5.89093C14.5897 5.89738 14.5656 5.90544 14.5414 5.91189C14.5301 5.91512 14.5188 5.91834 14.5059 5.92318C14.4833 5.92963 14.4607 5.93769 14.4365 5.94414C14.3833 5.96188 14.3285 5.97962 14.2769 5.99897C14.1785 6.03445 14.0834 6.07154 13.9882 6.11347C13.9592 6.12637 13.9286 6.13928 13.9011 6.15218C13.8947 6.1554 13.8882 6.15702 13.8818 6.16024C13.8544 6.17153 13.8286 6.18443 13.8012 6.19733C13.7979 6.19733 13.7947 6.20056 13.7915 6.20217C13.7641 6.21507 13.7366 6.22797 13.7092 6.24249C13.7012 6.24732 13.6915 6.25055 13.6834 6.257C13.6592 6.26829 13.6367 6.28119 13.6125 6.29409C13.5512 6.32634 13.4899 6.36021 13.4302 6.39569C13.3996 6.41343 13.3706 6.42955 13.3415 6.44891C13.3125 6.46503 13.2851 6.48277 13.2577 6.50051L13.2512 6.50535C13.2238 6.52309 13.1964 6.54083 13.169 6.55857C13.1674 6.55857 13.1658 6.56179 13.1625 6.56341C13.1383 6.57792 13.1158 6.59405 13.0932 6.61017C13.0819 6.61824 13.0706 6.6263 13.0577 6.63436C13.0368 6.64888 13.0174 6.66339 12.9964 6.6779C12.9126 6.73757 12.8303 6.80208 12.7513 6.86659C12.7255 6.88755 12.6981 6.91013 12.6723 6.9327C11.5676 7.87611 10.8661 9.27912 10.8661 10.8418C10.8661 12.2593 11.4434 13.5462 12.3756 14.4767C13.3077 15.4072 14.5946 15.9846 16.0137 15.9846H25.7364H25.73Z" fill="url(#paint0_linear_508_44)"/>
<path d="M25.6832 12.4772C25.7429 12.6369 25.5736 12.7868 25.4204 12.711L21.4629 10.7404C21.0114 10.5162 20.4808 10.5162 20.0309 10.7404L18.0102 11.7467C17.5587 11.9708 17.0281 11.9708 16.5782 11.7467L14.5559 10.7404C14.1043 10.5162 13.5738 10.5162 13.1238 10.7404L10.9548 11.8208C10.9032 11.5548 10.8726 11.2822 10.8645 11.0032L13.1238 9.87759C13.5754 9.65343 14.1059 9.65343 14.5559 9.87759L16.5782 10.8839C17.0297 11.1081 17.5603 11.1081 18.0102 10.8839L20.0309 9.87759C20.4824 9.65343 21.013 9.65343 21.4629 9.87759L25.1575 11.7176C25.3397 11.8079 25.48 11.9644 25.5574 12.1514C25.601 12.2595 25.6429 12.3675 25.6832 12.4756V12.4772Z" fill="url(#paint1_linear_508_44)"/>
<path d="M23.8174 9.29374C23.9996 9.505 23.7609 9.81624 23.511 9.69045L21.4645 8.67125C21.0129 8.44709 20.4824 8.44709 20.0325 8.67125L18.0118 9.67755C17.5602 9.90171 17.0297 9.90171 16.5797 9.67755L14.5575 8.67125C14.1059 8.44709 13.5754 8.44709 13.1254 8.67125L10.9822 9.73883C11.2257 8.62771 11.8321 7.64883 12.6674 6.93281C12.6932 6.91023 12.7207 6.88927 12.7465 6.86669C12.8255 6.80218 12.9077 6.73767 12.9916 6.67801C13.0125 6.66349 13.0319 6.64898 13.0529 6.63446C13.0642 6.6264 13.0754 6.61834 13.0883 6.61027C13.1109 6.59415 13.1351 6.57802 13.1577 6.56351C13.1593 6.56351 13.1609 6.56028 13.1641 6.55867C13.1916 6.54093 13.219 6.52319 13.2464 6.50545L13.2528 6.50061C13.2802 6.48287 13.3093 6.46514 13.3367 6.44901C13.3657 6.43127 13.3964 6.41353 13.4254 6.39579C13.4851 6.36031 13.5463 6.32645 13.6076 6.29419C13.6318 6.28129 13.6544 6.27 13.6786 6.2571C13.6866 6.25226 13.6963 6.24743 13.7044 6.24259C13.7318 6.22807 13.7592 6.21517 13.7866 6.20227C13.7898 6.20227 13.7931 6.19905 13.7963 6.19743C13.8221 6.18453 13.8495 6.17163 13.8769 6.16034C13.8834 6.15712 13.8898 6.1555 13.8963 6.15228C13.9253 6.13938 13.9543 6.12648 13.9834 6.11358C14.0785 6.07326 14.1737 6.03456 14.272 5.99908C14.3253 5.97972 14.3785 5.96199 14.4317 5.94425C14.4543 5.93618 14.4768 5.92973 14.501 5.92328C14.5123 5.92006 14.5236 5.91522 14.5365 5.91199C14.5607 5.90393 14.5849 5.89748 14.6091 5.89103C14.6236 5.88619 14.6381 5.88297 14.6526 5.87813C14.6768 5.87168 14.7026 5.86523 14.7284 5.85878C14.8187 5.8362 14.9106 5.81523 15.0026 5.79588C15.0397 5.78782 15.0768 5.78137 15.1138 5.77492C15.1171 5.77492 15.1219 5.77492 15.1267 5.7733C15.1574 5.76847 15.1896 5.76202 15.2203 5.75718C15.2348 5.75557 15.2493 5.75234 15.2638 5.75073C15.2928 5.74589 15.3219 5.74266 15.3509 5.73783C15.359 5.73783 15.3686 5.73621 15.3767 5.7346C15.4025 5.73138 15.4267 5.72815 15.4525 5.72654C15.4735 5.72492 15.4944 5.7217 15.517 5.72009C15.5267 5.72009 15.5364 5.71847 15.546 5.71686C15.5734 5.71364 15.6009 5.71202 15.6283 5.71041C15.6654 5.70719 15.7041 5.70557 15.7412 5.70396C15.8299 5.70235 15.9169 5.69751 16.0056 5.69751C19.1261 5.69751 21.9273 7.09246 23.8157 9.29213L23.8174 9.29374Z" fill="url(#paint2_linear_508_44)"/>
<path d="M15.4541 5.72974C15.4283 5.73296 15.4041 5.73457 15.3783 5.7378C15.4041 5.73457 15.4283 5.73135 15.4541 5.72974Z" fill="url(#paint3_linear_508_44)"/>
<path d="M15.3525 5.74097C15.3235 5.74419 15.2945 5.74903 15.2654 5.75387C15.2945 5.74903 15.3235 5.7458 15.3525 5.74097Z" fill="url(#paint4_linear_508_44)"/>
<path d="M15.2219 5.7605C15.1896 5.76534 15.159 5.77017 15.1284 5.77662C15.159 5.77179 15.1913 5.76534 15.2219 5.7605Z" fill="url(#paint5_linear_508_44)"/>
<path d="M14.7284 5.86035C14.7026 5.8668 14.6785 5.87325 14.6526 5.8797C14.6768 5.87325 14.7026 5.8668 14.7284 5.86035Z" fill="url(#paint6_linear_508_44)"/>
<path d="M14.6091 5.89258C14.5849 5.89903 14.5607 5.90709 14.5365 5.91354C14.5607 5.90548 14.5849 5.89903 14.6091 5.89258Z" fill="url(#paint7_linear_508_44)"/>
<path d="M14.501 5.9248C14.4785 5.93126 14.4543 5.93932 14.4317 5.94577C14.4543 5.93771 14.4769 5.93126 14.501 5.9248Z" fill="url(#paint8_linear_508_44)"/>
<path d="M15.9992 32.0001C7.11183 31.9743 -0.033868 24.8092 -2.19045e-06 15.9686C0.0338637 7.07803 7.25696 -0.0547606 16.0669 6.98647e-05C24.8801 0.0565129 32.0129 7.19414 31.9984 16.0154C31.9839 24.9108 24.7882 31.9807 15.9976 31.9985L15.9992 32.0001ZM30.747 16.0154C30.7228 7.83276 24.1431 1.23698 16.025 1.25633C7.8343 1.27407 1.23852 7.86824 1.26432 16.0106C1.29013 24.1916 7.89235 30.7486 16.0863 30.7277C24.1625 30.7067 30.7712 24.0755 30.747 16.0138V16.0154Z" fill="#68C0B2"/>
<path d="M2.2819 15.5993C2.33028 12.5788 3.45269 9.54216 5.7217 6.93772C5.86039 6.77806 5.94909 6.73613 6.09745 6.91998C6.29904 7.17155 6.71994 7.35217 6.71833 7.62632C6.71833 7.86983 6.35709 8.10851 6.16357 8.35847C4.67186 10.2856 3.80264 12.4595 3.58977 14.8897C3.33497 17.8038 4.02841 20.4808 5.63462 22.9224C5.93619 23.3804 6.26678 23.8174 6.64092 24.2174C6.778 24.3641 6.76187 24.4447 6.62479 24.5689C6.43289 24.7431 6.25066 24.9302 6.08133 25.1269C5.95715 25.2704 5.88458 25.2817 5.74751 25.1269C4.7912 24.0496 4.02841 22.8498 3.44302 21.5355C2.69474 19.8519 2.269 17.8361 2.2819 15.6009V15.5993Z" fill="#8FD8C7"/>
<path d="M29.7261 16.1993C29.6681 19.444 28.5344 22.4855 26.2476 25.0899C26.1283 25.227 26.0541 25.2464 25.9283 25.1044C25.7622 24.9174 25.5864 24.7368 25.3962 24.5739C25.2381 24.4368 25.2317 24.3433 25.3784 24.1804C26.5895 22.8241 27.4668 21.2711 27.9522 19.5214C29.0698 15.4898 28.386 11.7806 25.8896 8.41503C25.7187 8.18442 25.5316 7.9651 25.3397 7.75061C25.2397 7.64095 25.222 7.56999 25.3445 7.46033C25.551 7.27326 25.7493 7.07813 25.9332 6.86849C26.0702 6.71367 26.1428 6.74754 26.267 6.88784C27.8909 8.74078 28.9617 10.8679 29.4504 13.2836C29.631 14.1771 29.7132 15.0801 29.7261 16.1993Z" fill="#8FD8C7"/>
<path d="M15.5847 29.7035C12.5465 29.6552 9.50339 28.5247 6.89733 26.2395C6.7409 26.1025 6.74897 26.0299 6.89088 25.9025C7.0844 25.7299 7.26824 25.5445 7.43918 25.3494C7.56175 25.2107 7.63915 25.2268 7.77139 25.3445C8.92767 26.3734 10.2259 27.1797 11.6885 27.6845C15.8911 29.1326 19.8147 28.565 23.44 25.988C23.727 25.7848 23.9931 25.5493 24.256 25.3155C24.3624 25.2203 24.4237 25.2123 24.5237 25.3203C24.7124 25.5251 24.9075 25.7267 25.1172 25.9089C25.2687 26.0412 25.2607 26.1202 25.1123 26.2492C24.5156 26.7685 23.8867 27.241 23.2174 27.6603C21.1194 28.9746 18.502 29.7164 15.5863 29.7051L15.5847 29.7035Z" fill="#8FD8C7"/>
<path d="M16.0347 2.29175C19.4777 2.34497 22.5095 3.48028 25.1091 5.75413C25.2688 5.89282 25.2462 5.967 25.1091 6.09117C24.9172 6.26534 24.7301 6.44757 24.5592 6.64432C24.435 6.78784 24.3576 6.76204 24.2286 6.64754C22.7917 5.36548 21.1436 4.45271 19.2777 3.98182C15.0332 2.91262 11.2128 3.77701 7.85205 6.59432C7.67466 6.74269 7.55693 6.79752 7.39083 6.58787C7.25859 6.42177 7.10055 6.2734 6.93444 6.13955C6.74093 5.98313 6.72641 5.88314 6.93444 5.70575C9.14218 3.8012 11.687 2.6804 14.5881 2.36432C15.0703 2.3111 15.5509 2.3111 16.0363 2.29175H16.0347Z" fill="#8FD8C7"/>
<path d="M15.9992 32.0001C7.11183 31.9743 -0.033868 24.8092 -2.19045e-06 15.9686C0.0338637 7.07803 7.25696 -0.0547606 16.0669 6.98647e-05C24.8801 0.0565129 32.0129 7.19414 31.9984 16.0154C31.9839 24.9108 24.7882 31.9807 15.9976 31.9985L15.9992 32.0001ZM30.747 16.0154C30.7228 7.83276 24.1431 1.23698 16.025 1.25633C7.8343 1.27407 1.23852 7.86824 1.26432 16.0106C1.29013 24.1916 7.89235 30.7486 16.0863 30.7277C24.1625 30.7067 30.7712 24.0755 30.747 16.0138V16.0154Z" fill="#68C0B2"/>
<path d="M2.2819 15.5993C2.33028 12.5788 3.45269 9.54216 5.7217 6.93772C5.86039 6.77806 5.94909 6.73613 6.09745 6.91998C6.29904 7.17155 6.71994 7.35217 6.71833 7.62632C6.71833 7.86983 6.35709 8.10851 6.16357 8.35847C4.67186 10.2856 3.80264 12.4595 3.58977 14.8897C3.33497 17.8038 4.02841 20.4808 5.63462 22.9224C5.93619 23.3804 6.26678 23.8174 6.64092 24.2174C6.778 24.3641 6.76187 24.4447 6.62479 24.5689C6.43289 24.7431 6.25066 24.9302 6.08133 25.1269C5.95715 25.2704 5.88458 25.2817 5.74751 25.1269C4.7912 24.0496 4.02841 22.8498 3.44302 21.5355C2.69474 19.8519 2.269 17.8361 2.2819 15.6009V15.5993Z" fill="#8FD8C7"/>
<path d="M29.7261 16.1993C29.6681 19.444 28.5344 22.4855 26.2476 25.0899C26.1283 25.227 26.0541 25.2464 25.9283 25.1044C25.7622 24.9174 25.5864 24.7368 25.3962 24.5739C25.2381 24.4368 25.2317 24.3433 25.3784 24.1804C26.5895 22.8241 27.4668 21.2711 27.9522 19.5214C29.0698 15.4898 28.386 11.7806 25.8896 8.41503C25.7187 8.18442 25.5316 7.9651 25.3397 7.75061C25.2397 7.64095 25.222 7.56999 25.3445 7.46033C25.551 7.27326 25.7493 7.07813 25.9332 6.86849C26.0702 6.71367 26.1428 6.74754 26.267 6.88784C27.8909 8.74078 28.9617 10.8679 29.4504 13.2836C29.631 14.1771 29.7132 15.0801 29.7261 16.1993Z" fill="#8FD8C7"/>
<path d="M15.5847 29.7035C12.5465 29.6552 9.50339 28.5247 6.89733 26.2395C6.7409 26.1025 6.74897 26.0299 6.89088 25.9025C7.0844 25.7299 7.26824 25.5445 7.43918 25.3494C7.56175 25.2107 7.63915 25.2268 7.77139 25.3445C8.92767 26.3734 10.2259 27.1797 11.6885 27.6845C15.8911 29.1326 19.8147 28.565 23.44 25.988C23.727 25.7848 23.9931 25.5493 24.256 25.3155C24.3624 25.2203 24.4237 25.2123 24.5237 25.3203C24.7124 25.5251 24.9075 25.7267 25.1172 25.9089C25.2687 26.0412 25.2607 26.1202 25.1123 26.2492C24.5156 26.7685 23.8867 27.241 23.2174 27.6603C21.1194 28.9746 18.502 29.7164 15.5863 29.7051L15.5847 29.7035Z" fill="#8FD8C7"/>
<path d="M16.0347 2.29175C19.4777 2.34497 22.5095 3.48028 25.1091 5.75413C25.2688 5.89282 25.2462 5.967 25.1091 6.09117C24.9172 6.26534 24.7301 6.44757 24.5592 6.64432C24.435 6.78784 24.3576 6.76204 24.2286 6.64754C22.7917 5.36548 21.1436 4.45271 19.2777 3.98182C15.0332 2.91262 11.2128 3.77701 7.85205 6.59432C7.67466 6.74269 7.55693 6.79752 7.39083 6.58787C7.25859 6.42177 7.10055 6.2734 6.93444 6.13955C6.74093 5.98313 6.72641 5.88314 6.93444 5.70575C9.14218 3.8012 11.687 2.6804 14.5881 2.36432C15.0703 2.3111 15.5509 2.3111 16.0363 2.29175H16.0347Z" fill="#8FD8C7"/>
</g>
<defs>
<linearGradient id="paint0_linear_508_44" x1="5.71366" y1="15.9878" x2="26.2847" y2="15.9878" gradientUnits="userSpaceOnUse">
<stop offset="0.05" stop-color="#8FD8C7"/>
<stop offset="0.5" stop-color="#69B9AC"/>
<stop offset="0.97" stop-color="#68C0B2"/>
</linearGradient>
<linearGradient id="paint1_linear_508_44" x1="21.0855" y1="11.2209" x2="12.5239" y2="11.2209" gradientUnits="userSpaceOnUse">
<stop offset="0.05" stop-color="#8FD8C7"/>
<stop offset="0.5" stop-color="#69B9AC"/>
<stop offset="0.97" stop-color="#68C0B2"/>
</linearGradient>
<linearGradient id="paint2_linear_508_44" x1="21.0855" y1="7.773" x2="12.5239" y2="7.773" gradientUnits="userSpaceOnUse">
<stop offset="0.05" stop-color="#8FD8C7"/>
<stop offset="0.5" stop-color="#69B9AC"/>
<stop offset="0.97" stop-color="#68C0B2"/>
</linearGradient>
<linearGradient id="paint3_linear_508_44" x1="20.7517" y1="5.73296" x2="12.6949" y2="5.73296" gradientUnits="userSpaceOnUse">
<stop/>
<stop offset="1" stop-opacity="0.5"/>
</linearGradient>
<linearGradient id="paint4_linear_508_44" x1="20.8355" y1="5.74742" x2="12.6449" y2="5.74742" gradientUnits="userSpaceOnUse">
<stop/>
<stop offset="1" stop-opacity="0.5"/>
</linearGradient>
<linearGradient id="paint5_linear_508_44" x1="25.959" y1="5.76695" x2="10.2839" y2="5.76695" gradientUnits="userSpaceOnUse">
<stop/>
<stop offset="1" stop-opacity="0.5"/>
</linearGradient>
<linearGradient id="paint6_linear_508_44" x1="20.3421" y1="5.87003" x2="12.632" y2="5.87003" gradientUnits="userSpaceOnUse">
<stop/>
<stop offset="1" stop-opacity="0.5"/>
</linearGradient>
<linearGradient id="paint7_linear_508_44" x1="20.0744" y1="5.90387" x2="12.5675" y2="5.90387" gradientUnits="userSpaceOnUse">
<stop/>
<stop offset="1" stop-opacity="0.5"/>
</linearGradient>
<linearGradient id="paint8_linear_508_44" x1="19.6406" y1="5.93609" x2="12.5804" y2="5.93609" gradientUnits="userSpaceOnUse">
<stop/>
<stop offset="1" stop-opacity="0.5"/>
</linearGradient>
<clipPath id="clip0_508_44">
<rect width="32" height="32" fill="white"/>
</clipPath>
</defs>
</svg>
